<svg id="ewqlNbS3I4i1" xmlns="http://www.w3.org/2000/svg" xmlns:xlink="http://www.w3.org/1999/xlink" viewBox="0 0 300 300" shape-rendering="geometricPrecision" text-rendering="geometricPrecision"><rect width="48.422597" height="118.12179" rx="20" ry="20" transform="matrix(.775596 0.194338-.243052 0.970013 89.699662 103.972216)" fill="#fff" stroke-width="0"/><rect width="55.025679" height="30.657861" rx="10" ry="10" transform="translate(98.546311 156.429447)" fill="#fff" stroke-width="0"/><rect width="55.025679" height="21.120076" rx="0" ry="0" transform="translate(98.546312 156.429447)" fill="#fff" stroke-width="0"/><rect width="30" height="30" rx="0" ry="0" transform="matrix(.699839 0 0 0.766327 65 201.5)" fill="#fff" stroke-width="0"/><rect width="40.352164" height="40.132493" rx="0" ry="0" transform="matrix(.567554 0 0 0.458825 100 107.5)" fill="#fff" stroke-width="0"/><rect width="55.025679" height="30.657861" rx="10" ry="10" transform="matrix(1.38875 0 0 1 122.902032 76.842139)" fill="#ee7f00" stroke-width="0"/><rect width="20.54292" height="15.328931" rx="0" ry="0" transform="matrix(2.24533 0 0 1 122.902032 92.2)" fill="#ee7f00" stroke-width="0"/></svg>
